<?xml version="1.0" standalone="no"?>
<!DOCTYPE svg PUBLIC "-//W3C//DTD SVG 20010904//EN"
 "http://www.w3.org/TR/2001/REC-SVG-20010904/DTD/svg10.dtd">
<svg version="1.0" xmlns="http://www.w3.org/2000/svg"
 width="512.000000pt" height="512.000000pt" viewBox="0 0 512.000000 512.000000"
 preserveAspectRatio="xMidYMid meet">

<g transform="translate(0.000000,512.000000) scale(0.100000,-0.100000)"
fill="#000000" stroke="none">
<path d="M2472 5109 c-24 -4 -68 -19 -98 -33 -287 -131 -346 -514 -113 -730
33 -31 64 -56 70 -56 5 0 9 -102 9 -255 l0 -255 -537 0 c-584 0 -615 -3 -734
-56 -120 -54 -232 -161 -291 -277 -50 -101 -68 -192 -68 -353 l0 -142 -122 -4
c-108 -3 -130 -6 -180 -30 -105 -49 -179 -149 -198 -265 -13 -78 -13 -772 0
-852 20 -122 92 -216 205 -267 52 -24 76 -29 178 -32 l117 -4 0 -143 c0 -241
44 -360 185 -500 57 -57 100 -90 148 -113 112 -54 163 -64 375 -69 l192 -6 0
-156 c0 -86 4 -182 10 -214 22 -137 121 -248 251 -283 77 -20 1298 -21 1374 0
70 18 106 39 156 89 89 89 109 164 109 408 l0 156 198 5 c177 5 205 8 279 32
161 52 299 172 370 321 46 99 63 186 63 343 l0 132 88 0 c48 0 113 7 145 15
138 36 233 142 257 286 13 80 13 774 0 852 -19 116 -93 216 -198 265 -50 24
-72 27 -174 30 l-118 4 0 131 c0 162 -17 246 -69 352 -85 171 -230 284 -423
330 -52 12 -160 15 -605 15 l-543 0 0 255 c0 153 4 255 9 255 6 0 37 25 70 56
110 101 163 250 141 391 -40 253 -279 421 -528 372z m-742 -2001 c71 -21 128
-58 182 -117 80 -86 103 -148 103 -276 0 -91 -3 -106 -31 -166 -121 -255 -451
-317 -652 -121 -106 103 -148 263 -108 403 62 214 293 340 506 277z m1890 0
c133 -40 227 -133 276 -272 19 -53 19 -177 0 -238 -35 -113 -131 -215 -243
-259 -74 -29 -214 -31 -283 -5 -118 44 -213 145 -250 264 -95 308 193 601 500
510z m-383 -1240 c73 -27 153 -101 184 -171 36 -79 34 -202 -4 -279 -35 -71
-110 -140 -183 -167 -53 -20 -74 -21 -674 -21 -600 0 -621 1 -674 21 -149 55
-242 227 -206 380 25 108 104 200 204 238 49 19 78 20 673 20 613 1 623 1 680
-21z"/>
</g>
</svg>
