<?xml version="1.0" standalone="no"?>
<!DOCTYPE svg PUBLIC "-//W3C//DTD SVG 20010904//EN"
 "http://www.w3.org/TR/2001/REC-SVG-20010904/DTD/svg10.dtd">
<svg version="1.0" xmlns="http://www.w3.org/2000/svg"
 width="512.000000pt" height="512.000000pt" viewBox="0 0 512.000000 512.000000"
 preserveAspectRatio="xMidYMid meet">

<g transform="translate(0.000000,512.000000) scale(0.100000,-0.100000)"
fill="#000000" stroke="none">
<path d="M2457 4680 c-114 -29 -219 -116 -274 -228 -34 -68 -38 -85 -41 -168
-4 -106 11 -168 60 -247 30 -46 121 -137 139 -137 6 0 8 -58 7 -137 l-3 -138
-210 -6 c-290 -9 -409 -35 -646 -142 -237 -107 -491 -337 -633 -574 -118 -198
-183 -401 -208 -650 l-12 -122 -136 -3 c-132 -3 -138 -4 -185 -33 -35 -21 -56
-45 -74 -80 l-26 -49 0 -361 c0 -388 2 -406 53 -467 47 -55 90 -68 240 -68
l132 0 0 -127 c0 -144 15 -224 56 -296 40 -72 118 -145 193 -181 l66 -31 1605
0 1605 0 67 32 c75 35 150 104 191 173 42 73 57 149 57 297 l0 133 135 0 c105
0 143 4 168 16 45 23 76 53 100 99 21 39 22 50 22 415 l0 375 -25 45 c-14 24
-44 58 -68 75 -43 30 -46 30 -186 33 l-143 3 -7 97 c-17 241 -103 508 -224
696 -109 169 -281 345 -437 448 -116 76 -154 96 -269 142 -188 76 -302 97
-561 105 l-210 6 -3 138 c-1 84 1 137 7 137 5 0 37 25 70 56 223 206 164 566
-115 696 -54 25 -81 31 -152 34 -48 2 -104 -1 -125 -6z m-686 -2365 c166 -56
300 -198 344 -366 20 -72 19 -212 -1 -280 -57 -193 -219 -343 -412 -380 -380
-73 -714 282 -617 656 49 187 213 347 395 384 117 24 191 20 291 -14z m1920 0
c166 -56 300 -198 344 -366 20 -72 19 -212 -1 -280 -57 -193 -219 -343 -412
-380 -380 -73 -714 282 -617 656 49 187 213 347 395 384 117 24 191 20 291
-14z"/>
</g>
</svg>
