<?xml version="1.0" standalone="no"?>
<!DOCTYPE svg PUBLIC "-//W3C//DTD SVG 20010904//EN"
 "http://www.w3.org/TR/2001/REC-SVG-20010904/DTD/svg10.dtd">
<svg version="1.0" xmlns="http://www.w3.org/2000/svg"
 width="200.000000pt" height="200.000000pt" viewBox="0 0 200.000000 200.000000"
 preserveAspectRatio="xMidYMid meet">

<g transform="translate(0.000000,200.000000) scale(0.100000,-0.100000)"
fill="#000000" stroke="none">
<path d="M965 1705 c-179 -33 -378 -113 -502 -201 -61 -44 -93 -78 -93 -99 0
-7 100 -63 223 -125 l222 -114 450 145 c341 110 451 149 453 162 2 10 -18 38
-48 67 -61 59 -181 121 -296 151 -105 27 -299 34 -409 14z m350 -50 c69 -16
186 -71 192 -90 2 -6 -143 -54 -322 -108 l-326 -98 -141 82 -141 82 59 30
c109 55 257 102 379 121 56 8 230 -3 300 -19z"/>
<path d="M1022 1635 c-41 -7 -130 -32 -198 -56 l-125 -42 29 -19 c28 -18 29
-18 148 23 65 22 173 53 238 68 89 20 113 29 95 34 -36 10 -105 7 -187 -8z"/>
<path d="M1122 1564 c-65 -14 -262 -77 -290 -93 -13 -7 -11 -11 10 -25 24 -16
31 -14 159 28 74 25 188 57 254 71 66 15 122 29 124 31 11 10 -201 1 -257 -12z"/>
<path d="M1575 1385 c-71 -24 -270 -89 -441 -145 l-310 -101 -28 -418 c-16
-230 -27 -423 -25 -430 5 -15 313 89 499 169 156 67 263 119 388 188 l82 46 0
368 c0 344 -1 368 -17 367 -10 0 -76 -20 -148 -44z"/>
<path d="M306 1003 c-21 -203 -41 -379 -43 -392 -9 -38 129 -165 242 -223 99
-50 224 -102 231 -95 5 5 66 848 62 852 -13 10 -438 225 -445 225 -4 0 -25
-165 -47 -367z m229 173 c28 -13 61 -35 74 -49 22 -24 23 -32 17 -94 -10 -103
-17 -105 -125 -44 l-91 53 0 73 c0 49 4 75 13 78 27 11 64 6 112 -17z m-5
-253 c0 -63 -12 -143 -21 -143 -10 0 -12 103 -3 149 9 43 24 39 24 -6z m-40
-218 c57 -29 61 -142 7 -180 -12 -8 -40 -15 -63 -15 -34 0 -47 5 -63 26 -23
30 -29 110 -10 145 20 38 80 49 129 24z"/>
<path d="M432 1108 l3 -62 65 -38 c36 -21 68 -38 73 -38 4 0 7 29 7 65 l0 65
-70 35 c-38 19 -72 35 -75 35 -3 0 -5 -28 -3 -62z"/>
<path d="M376 678 c-23 -33 -21 -113 4 -138 11 -11 24 -20 29 -20 20 0 51 54
51 89 0 76 -51 117 -84 69z"/>
</g>
</svg>
