<?xml version="1.0" standalone="no"?>
<!DOCTYPE svg PUBLIC "-//W3C//DTD SVG 20010904//EN"
 "http://www.w3.org/TR/2001/REC-SVG-20010904/DTD/svg10.dtd">
<svg version="1.0" xmlns="http://www.w3.org/2000/svg"
 width="512.000000pt" height="512.000000pt" viewBox="0 0 512.000000 512.000000"
 preserveAspectRatio="xMidYMid meet">

<g transform="translate(0.000000,512.000000) scale(0.100000,-0.100000)"
fill="#000000" stroke="none">
<path d="M1620 5055 c-369 -17 -489 -26 -535 -40 -152 -43 -273 -144 -343
-282 -156 -313 5 -689 337 -787 74 -22 297 -22 348 -1 20 8 123 65 229 126
l193 110 225 -188 225 -188 1 -65 0 -65 -49 -18 c-91 -32 -121 -92 -121 -239
l0 -88 -352 0 c-321 0 -357 -2 -393 -19 -53 -24 -93 -73 -101 -122 -4 -21 -10
-39 -14 -39 -3 0 -53 16 -110 36 -144 50 -204 41 -263 -37 -26 -36 -117 -296
-117 -336 0 -20 -10 -48 -23 -66 -34 -45 -117 -292 -117 -345 0 -49 17 -86 54
-121 17 -16 120 -57 303 -120 l278 -97 3 -91 3 -92 -564 -3 -564 -3 -48 -30
c-36 -22 -57 -45 -78 -85 -27 -52 -29 -61 -25 -150 3 -63 10 -106 21 -127 16
-30 16 -34 -3 -75 -27 -60 -27 -196 0 -256 19 -41 19 -45 3 -75 -11 -21 -18
-64 -21 -123 -4 -77 -1 -98 17 -138 20 -45 20 -49 4 -79 -11 -21 -18 -64 -21
-123 -4 -77 -1 -98 18 -141 21 -50 21 -52 4 -78 -23 -35 -31 -181 -14 -243 15
-56 80 -123 136 -140 31 -9 188 -12 606 -12 l565 0 43 23 c30 16 51 37 67 67
22 41 23 54 23 231 l0 188 283 3 c270 3 283 4 317 25 20 12 46 40 58 61 21 38
22 51 22 276 l0 236 430 0 430 0 0 -236 c0 -225 1 -238 22 -276 12 -21 38 -49
58 -61 34 -21 47 -22 318 -25 l282 -3 0 -188 c0 -177 1 -190 23 -231 16 -30
37 -51 67 -67 l43 -23 565 0 c418 0 575 3 606 12 57 17 119 82 135 141 18 64
11 206 -13 242 -17 26 -17 29 4 78 19 43 22 64 18 141 -3 59 -10 102 -21 123
-16 30 -16 34 4 79 18 40 21 61 17 138 -3 59 -10 102 -21 123 -16 30 -16 34 3
75 27 60 27 196 0 256 -19 41 -19 45 -3 75 11 21 18 64 21 127 4 89 2 98 -25
150 -21 40 -42 63 -78 85 l-48 30 -564 3 -564 3 3 91 3 91 230 79 c293 100
328 115 353 141 26 28 52 88 52 121 0 33 -96 305 -119 336 -10 14 -21 50 -24
80 -7 58 -84 284 -112 326 -9 14 -30 34 -48 44 -58 36 -89 35 -211 -4 -63 -20
-116 -36 -118 -36 -3 0 -8 18 -12 39 -8 49 -48 98 -101 122 -36 17 -72 19
-392 19 l-353 0 0 88 c0 147 -30 207 -121 239 l-49 18 0 65 1 65 221 184 c122
101 227 184 233 184 6 0 105 -53 220 -119 l209 -119 138 -3 c106 -3 151 0 195
13 203 59 348 220 390 434 55 278 -113 554 -387 635 -55 17 -164 23 -940 57
-157 7 -298 9 -313 5 -15 -3 -45 -22 -66 -41 -45 -41 -61 -90 -61 -192 0 -37
-3 -105 -7 -150 l-6 -83 -88 0 -88 0 -5 43 c-3 23 -7 99 -10 168 -6 134 -14
170 -49 208 -55 60 -66 60 -787 26z m76 -205 c104 -51 167 -150 168 -265 1
-60 -4 -80 -32 -138 -132 -268 -536 -190 -559 108 -6 72 7 125 46 186 78 125
245 172 377 109z m1941 15 c61 -18 144 -89 175 -149 29 -57 36 -167 14 -234
-23 -67 -84 -135 -152 -168 -72 -35 -175 -38 -245 -7 -107 48 -179 155 -179
269 0 91 24 150 89 214 84 84 184 109 298 75z m-1337 -636 l0 -200 -27 20
c-58 41 -255 209 -255 216 0 8 260 163 275 164 4 1 7 -89 7 -200z m663 125
c73 -41 136 -79 140 -83 6 -6 -164 -153 -270 -234 -10 -7 -13 32 -13 192 0
110 2 201 5 201 3 0 65 -34 138 -76z m-143 -939 l0 -85 -260 0 -260 0 0 85 0
85 260 0 260 0 0 -85z m165 -705 l0 -445 -425 0 -425 0 -3 435 c-1 239 0 441
3 448 3 10 94 12 427 10 l423 -3 0 -445z m-1663 242 l277 -94 -41 -116 c-23
-64 -42 -118 -43 -120 -2 -2 -273 88 -507 170 l-57 19 41 120 c23 66 44 118
48 117 3 -2 130 -45 282 -96z m2808 -23 c23 -66 41 -121 39 -123 -8 -6 -545
-186 -554 -186 -11 0 -92 226 -84 234 3 3 128 48 279 100 151 52 276 95 276
95 1 1 20 -53 44 -120z m-2971 -373 c135 -47 258 -89 273 -95 l28 -10 -42
-118 c-22 -65 -42 -119 -43 -120 -1 -2 -118 37 -261 86 -142 49 -269 92 -281
95 -22 7 -22 7 20 126 23 66 46 120 51 120 4 0 119 -38 255 -84z m3110 -33
c22 -64 40 -117 38 -118 -4 -4 -531 -184 -546 -187 -9 -2 -26 31 -52 102 -21
58 -40 111 -41 119 -2 9 78 41 267 107 149 51 275 93 281 93 6 1 30 -52 53
-116z m-3182 -1017 c20 -24 24 -36 19 -65 -10 -66 -26 -71 -225 -71 -171 0
-178 1 -198 23 -25 26 -30 51 -20 90 13 49 50 57 235 55 l164 -3 25 -29z
m3328 20 c53 -22 64 -89 22 -133 -20 -22 -27 -23 -198 -23 -154 0 -180 2 -198
18 -32 26 -38 81 -12 114 27 34 35 35 209 37 104 1 152 -3 177 -13z m-3338
-351 c27 -19 39 -75 23 -105 -23 -43 -64 -50 -290 -50 -161 0 -219 3 -245 15
-58 23 -70 90 -25 135 19 19 34 20 268 20 206 0 251 -3 269 -15z m3503 -5 c45
-45 33 -112 -26 -136 -30 -13 -78 -15 -266 -12 l-230 3 -25 29 c-20 24 -24 36
-19 65 11 69 18 71 297 71 235 0 250 -1 269 -20z m-2620 -275 l0 -215 -255 0
-255 0 0 215 0 215 255 0 255 0 0 -215z m1710 0 l0 -215 -255 0 -255 0 0 215
0 215 255 0 255 0 0 -215z m-2590 -65 c43 -43 34 -110 -20 -137 -35 -18 -465
-18 -500 0 -52 26 -62 95 -20 137 19 19 34 20 270 20 236 0 251 -1 270 -20z
m3498 0 c44 -41 35 -110 -18 -137 -35 -18 -465 -18 -500 0 -54 27 -63 94 -20
137 19 19 34 20 268 20 236 0 249 -1 270 -20z m-3507 -333 c46 -35 50 -88 10
-128 l-29 -29 -161 0 c-88 0 -171 4 -186 10 -30 11 -54 60 -47 96 2 13 16 33
30 44 22 18 40 20 196 20 119 -1 176 -4 187 -13z m3361 -7 c14 -11 28 -31 30
-44 7 -36 -17 -85 -47 -96 -15 -6 -98 -10 -186 -10 l-161 0 -29 29 c-31 31
-36 59 -17 94 23 44 35 46 214 47 156 0 174 -2 196 -20z"/>
</g>
</svg>
