<?xml version="1.0" standalone="no"?>
<!DOCTYPE svg PUBLIC "-//W3C//DTD SVG 20010904//EN"
 "http://www.w3.org/TR/2001/REC-SVG-20010904/DTD/svg10.dtd">
<svg version="1.0" xmlns="http://www.w3.org/2000/svg"
 width="1600.000000pt" height="1700.000000pt" viewBox="0 0 1600.000000 1700.000000"
 preserveAspectRatio="xMidYMid meet">

<g transform="translate(0.000000,1700.000000) scale(0.100000,-0.100000)"
fill="#1976d2" stroke="none">
<path d="M8087 14264 c-331 -60 -614 -293 -744 -614 -51 -125 -68 -218 -67
-370 1 -146 15 -230 59 -346 158 -420 586 -688 1028 -643 122 12 174 25 283
69 127 52 224 118 330 224 198 198 288 421 287 706 -1 168 -29 287 -102 435
-199 400 -634 618 -1074 539z m328 -409 c192 -50 350 -199 417 -395 33 -95 32
-256 -1 -358 -59 -181 -201 -321 -386 -383 -104 -35 -251 -33 -358 4 -181 63
-318 198 -379 375 -19 56 -23 86 -22 187 0 103 4 129 26 187 75 198 225 336
414 382 79 19 216 19 289 1z"/>
<path d="M6944 12854 c-99 -108 -204 -224 -234 -259 -30 -34 -116 -129 -190
-210 -127 -140 -294 -325 -715 -791 -99 -109 -182 -201 -185 -204 -22 -21
-180 -199 -180 -202 0 -3 45 -8 99 -12 287 -18 528 -121 731 -312 l78 -75 50
53 c27 29 156 172 288 318 131 146 259 287 284 315 25 27 68 74 96 105 28 30
135 150 239 265 104 116 208 230 231 255 22 25 67 74 98 108 l58 64 -54 35
c-232 153 -415 400 -487 662 -11 41 -22 76 -25 78 -2 2 -84 -85 -182 -193z"/>
<path d="M9383 12943 c-3 -10 -21 -56 -39 -102 -96 -241 -285 -451 -521 -581
l-42 -23 27 -33 c27 -32 561 -624 572 -634 6 -5 282 -311 497 -549 l122 -136
-42 -23 c-131 -72 -127 -262 7 -323 35 -16 67 -19 215 -19 l174 0 -185 -188
c-226 -230 -249 -268 -256 -424 -3 -73 0 -109 13 -150 22 -64 318 -624 347
-656 28 -29 79 -43 121 -31 60 16 104 85 92 141 -4 16 -67 134 -140 262 -75
131 -141 259 -150 291 -12 42 -16 83 -13 144 6 138 35 188 213 371 81 83 165
171 187 195 41 45 41 45 108 45 l68 0 171 -176 c189 -195 222 -237 253 -322
24 -70 27 -195 5 -265 -9 -27 -77 -155 -151 -286 -122 -214 -136 -242 -136
-285 0 -41 5 -53 34 -82 29 -29 41 -34 80 -34 58 0 92 16 115 54 24 41 248
461 295 554 69 137 71 262 6 401 -26 54 -60 94 -217 253 l-187 188 175 0 c148
0 180 3 214 19 72 33 105 86 105 168 0 98 -75 169 -193 181 l-62 7 -190 210
c-172 190 -355 392 -580 640 -45 50 -121 135 -170 190 -49 55 -139 154 -200
220 -60 66 -249 274 -419 463 -170 188 -311 342 -313 342 -2 0 -6 -8 -10 -17z"/>
<path d="M5280 10995 c-365 -82 -640 -328 -754 -678 -73 -223 -56 -498 43
-712 55 -117 104 -188 194 -282 126 -132 291 -228 469 -275 123 -33 367 -32
488 0 361 98 623 358 722 717 31 109 35 333 10 455 -75 364 -346 652 -712 758
-109 31 -356 40 -460 17z m374 -416 c280 -87 459 -385 401 -670 -58 -288 -289
-479 -582 -479 -159 0 -304 60 -412 170 -112 114 -162 229 -169 386 -5 126 8
192 60 296 74 148 237 277 388 307 30 6 64 13 75 15 38 9 179 -6 239 -25z"/>
<path d="M6284 9179 c-51 -54 -184 -149 -268 -191 -180 -91 -332 -129 -518
-132 -65 0 -118 -3 -118 -4 0 -2 66 -76 147 -165 80 -89 225 -250 322 -357 96
-107 178 -197 181 -200 3 -3 89 -97 190 -210 102 -113 189 -210 195 -216 5 -6
129 -143 275 -304 146 -162 316 -350 379 -419 l114 -126 -91 -7 c-160 -11
-281 -87 -345 -217 -30 -61 -32 -74 -36 -183 l-3 -118 -92 0 c-514 0 -920
-166 -1261 -514 -262 -268 -432 -655 -452 -1028 l-6 -108 3018 0 3018 0 -6
113 c-34 572 -383 1098 -902 1357 -232 115 -443 166 -737 177 l-168 6 0 103
c0 157 -44 252 -154 335 -84 64 -151 79 -341 79 l-164 0 -178 197 c-195 216
-517 572 -708 783 -67 74 -257 284 -421 466 -738 816 -828 914 -834 914 -3 0
-19 -14 -36 -31z"/>
<path d="M0 500 l0 -500 8000 0 8000 0 0 500 0 500 -8000 0 -8000 0 0 -500z
m776 263 c35 -12 68 -35 117 -84 l67 -68 0 -125 c0 -138 -9 -173 -49 -183 -14
-3 -52 -21 -83 -40 -107 -66 -238 -55 -331 27 -129 114 -121 329 17 431 27 20
63 41 80 47 49 16 128 14 182 -5z m464 -160 c1 -92 2 -96 16 -71 17 32 62 58
100 58 26 0 94 -35 94 -48 0 -4 -26 -33 -57 -65 -56 -57 -57 -59 -28 -55 17 3
38 9 48 13 14 6 17 2 17 -22 0 -69 -129 -72 -168 -3 -20 35 -28 37 -37 9 -9
-26 -62 -59 -98 -59 -99 0 -154 119 -88 192 27 30 35 33 85 33 l56 0 0 58 c0
57 0 57 30 57 l30 0 0 -97z m885 67 c0 -18 -6 -26 -23 -28 -13 -2 -25 3 -28
12 -10 26 4 48 28 44 17 -2 23 -10 23 -28z m475 -29 l0 -59 39 5 c33 5 41 2
55 -19 13 -20 76 -190 76 -206 0 -2 -14 -2 -32 0 -30 3 -33 7 -56 81 -25 80
-41 99 -67 77 -11 -9 -15 -33 -15 -86 l0 -74 -30 0 c-29 0 -30 2 -31 43 0 33
-2 38 -9 21 -4 -12 -21 -31 -37 -44 -23 -18 -37 -21 -80 -18 l-53 5 0 -44 c0
-41 -1 -43 -30 -43 l-30 0 0 118 c0 129 7 150 60 177 59 30 148 5 170 -48 6
-15 9 7 9 76 l1 97 30 0 c30 0 30 0 30 -59z m-370 -16 c0 -31 3 -35 25 -35 21
0 25 -5 25 -30 0 -25 -4 -30 -25 -30 -24 0 -25 -3 -25 -55 0 -52 1 -55 25 -55
21 0 25 -5 25 -30 0 -28 -3 -30 -35 -30 -56 0 -75 27 -75 105 0 37 -4 65 -10
65 -5 0 -10 14 -10 30 0 17 5 30 10 30 6 0 10 11 10 23 0 15 9 28 23 35 34 16
37 15 37 -23z m830 0 c0 -31 3 -35 25 -35 21 0 25 -5 25 -30 0 -25 -4 -30 -25
-30 -24 0 -25 -3 -25 -55 0 -52 1 -55 25 -55 21 0 25 -5 25 -30 0 -28 -3 -30
-35 -30 -56 0 -75 27 -75 105 0 37 -4 65 -10 65 -5 0 -10 14 -10 30 0 17 5 30
10 30 6 0 10 11 10 23 0 15 9 28 23 35 34 16 37 15 37 -23z m-1414 -66 c13
-12 24 -28 24 -36 0 -20 17 -15 23 6 6 26 64 61 100 61 114 0 161 -151 65
-210 -18 -11 -46 -20 -63 -20 -37 0 -95 34 -102 60 -4 16 -10 13 -44 -22 -37
-39 -40 -40 -89 -36 l-50 5 0 -43 c0 -42 -1 -44 -30 -44 l-30 0 0 110 c0 123
11 159 58 185 38 21 107 14 138 -16z m395 12 c24 -19 24 -19 5 -40 -13 -15
-23 -18 -30 -11 -5 5 -16 10 -23 10 -22 0 -14 -18 14 -32 38 -18 54 -53 41
-89 -17 -51 -76 -65 -119 -30 -24 19 -24 19 -5 40 13 15 23 18 30 11 14 -14
36 -13 36 3 0 6 -14 18 -30 25 -33 15 -46 47 -36 87 11 44 77 58 117 26z m89
-96 l0 -115 -30 0 -30 0 0 115 0 115 30 0 30 0 0 -115z m817 82 c76 -76 6
-213 -99 -193 -55 10 -83 47 -83 111 0 55 18 88 60 106 34 15 96 3 122 -24z
m323 18 c107 -55 62 -215 -61 -215 -22 0 -41 10 -65 34 -92 92 11 241 126 181z
m191 -4 c24 -19 24 -19 5 -40 -13 -15 -23 -18 -30 -11 -5 5 -16 10 -23 10 -22
0 -15 -20 10 -29 60 -23 74 -75 32 -116 -29 -30 -74 -33 -106 -6 -24 19 -24
19 -5 40 13 15 23 18 30 11 13 -13 46 -13 46 0 0 5 -15 17 -32 26 -40 20 -48
31 -48 67 0 58 72 88 121 48z m7699 -62 c0 -39 -4 -69 -10 -69 -6 0 -10 32
-10 76 0 47 4 73 10 69 6 -3 10 -37 10 -76z m610 0 c0 -39 -4 -69 -10 -69 -6
0 -10 32 -10 76 0 47 4 73 10 69 6 -3 10 -37 10 -76z m368 41 c3 -15 -7 -34
-29 -56 l-33 -34 32 0 c18 0 32 -4 32 -10 0 -5 -22 -10 -50 -10 -27 0 -50 3
-50 6 0 3 18 23 40 45 22 22 40 46 40 55 0 23 -31 30 -46 9 -16 -21 -28 -16
-18 8 13 34 77 24 82 -13z m100 -39 c2 -44 -1 -71 -8 -71 -8 0 -16 65 -11 94
1 5 -7 6 -19 3 -11 -3 -20 -3 -20 0 0 9 44 50 50 47 3 -1 7 -34 8 -73z m449
51 c9 -10 9 -20 2 -33 -6 -13 -6 -19 1 -19 14 0 13 -43 -2 -58 -7 -7 -22 -12
-34 -12 -23 0 -51 26 -40 37 3 4 12 -1 19 -11 16 -21 47 -11 47 15 0 11 -10
23 -22 28 l-22 8 21 12 c14 7 20 17 17 26 -8 20 -31 19 -42 -1 -7 -13 -11 -14
-17 -4 -10 17 21 41 43 33 10 -3 22 -13 29 -21z m336 -75 c9 -7 9 -10 0 -14
-7 -2 -13 -11 -13 -19 0 -8 -4 -14 -10 -14 -5 0 -10 7 -10 15 0 10 -10 15 -30
15 -16 0 -30 4 -30 10 0 5 17 34 38 62 l37 53 3 -50 c2 -27 9 -53 15 -58z
m987 28 l0 -75 -33 0 c-41 0 -57 15 -57 55 0 37 16 55 47 55 16 0 23 6 23 20
0 11 5 20 10 20 6 0 10 -32 10 -75z m490 65 c0 -5 -4 -10 -10 -10 -5 0 -10 5
-10 10 0 6 5 10 10 10 6 0 10 -4 10 -10z m64 -33 c8 -6 8 -10 -1 -14 -15 -6
-18 -73 -3 -73 6 0 10 -5 10 -11 0 -6 -8 -9 -17 -7 -13 2 -20 17 -24 53 -6 53
10 120 19 80 2 -11 9 -24 16 -28z m156 20 c0 -18 5 -23 28 -22 26 0 27 -3 30
-52 2 -32 -1 -53 -7 -53 -6 0 -11 20 -11 46 0 38 -3 45 -17 42 -13 -2 -19 -15
-21 -46 -5 -71 -22 -46 -22 33 0 43 4 75 10 75 6 0 10 -10 10 -23z m234 -20
c8 -6 8 -10 -1 -14 -15 -6 -18 -73 -3 -73 6 0 10 -5 10 -11 0 -6 -8 -9 -17 -7
-13 2 -20 17 -24 53 -6 53 10 120 19 80 2 -11 9 -24 16 -28z m-3044 14 c15
-29 12 -87 -6 -105 -16 -16 -93 -23 -95 -8 0 4 -2 35 -4 70 l-4 62 49 0 c39 0
52 -4 60 -19z m440 -25 c0 -26 5 -47 13 -50 10 -5 10 -7 0 -12 -7 -3 -13 -12
-13 -20 0 -8 -4 -14 -10 -14 -5 0 -10 7 -10 15 0 10 -10 15 -30 15 -16 0 -30
3 -30 7 0 12 62 103 71 103 5 0 9 -20 9 -44z m130 34 c0 -5 -13 -10 -29 -10
-17 0 -31 -6 -35 -16 -5 -12 -2 -15 12 -12 11 3 27 1 36 -4 19 -10 21 -59 4
-76 -17 -17 -53 -15 -68 3 -18 21 -5 31 15 12 22 -23 47 -10 43 22 -3 23 -7
26 -37 23 -27 -2 -32 1 -27 14 3 8 6 24 6 35 0 16 7 19 40 19 22 0 40 -4 40
-10z m101 -6 c10 -12 10 -20 1 -35 -7 -11 -8 -19 -2 -19 5 0 10 -13 10 -30 0
-23 -5 -31 -24 -36 -41 -10 -66 4 -66 37 0 16 5 29 10 29 7 0 7 6 0 19 -5 11
-7 27 -4 35 8 21 58 21 75 0z m218 -2 c6 -11 6 -24 0 -35 -7 -11 -6 -17 1 -17
14 0 13 -43 -2 -58 -17 -17 -53 -15 -68 3 -18 21 -5 31 15 12 8 -9 22 -14 30
-11 22 9 18 45 -5 51 -21 6 -21 6 -1 20 21 14 18 43 -5 43 -7 0 -17 -8 -23
-17 -12 -21 -24 -13 -15 11 8 22 61 21 73 -2z m101 -26 c0 -26 5 -47 13 -50
10 -5 10 -7 0 -12 -7 -3 -13 -12 -13 -20 0 -8 -4 -14 -10 -14 -5 0 -10 7 -10
15 0 10 -10 15 -30 15 -16 0 -30 5 -30 11 0 14 61 99 72 99 4 0 8 -20 8 -44z
m-1574 1 c9 -9 11 -97 2 -97 -4 0 -8 18 -8 40 0 28 -5 43 -16 47 -21 8 -34
-13 -34 -54 0 -18 -4 -33 -10 -33 -5 0 -10 21 -10 46 0 38 -3 45 -16 40 -9 -3
-18 -6 -20 -6 -2 0 -4 -18 -4 -40 0 -22 -4 -40 -10 -40 -5 0 -10 22 -10 49 0
44 3 50 23 53 32 5 107 2 113 -5z m102 1 c7 -7 12 -31 12 -54 l0 -42 -42 2
c-39 1 -43 3 -43 26 0 19 6 26 25 28 33 5 48 20 27 28 -10 3 -24 1 -32 -6 -9
-7 -19 -10 -23 -6 -9 10 26 36 48 36 9 0 21 -5 28 -12z m110 6 c19 -6 22 -13
22 -63 0 -31 -5 -62 -12 -69 -15 -15 -64 -16 -73 -1 -11 16 1 22 23 10 13 -7
22 -7 30 1 15 15 16 31 1 23 -5 -4 -21 -4 -35 -1 -20 5 -24 12 -24 44 0 55 18
69 68 56z m113 -4 c21 -12 26 -49 7 -51 -7 -1 -23 0 -35 1 -15 1 -23 -4 -23
-13 0 -20 20 -27 43 -15 21 11 32 5 22 -11 -9 -15 -58 -14 -73 1 -17 17 -15
64 4 82 18 19 28 20 55 6z m1809 -22 l12 -33 10 33 c11 39 30 37 39 -4 l6 -29
13 33 c6 17 16 32 21 32 11 0 12 3 -7 -59 -15 -53 -36 -64 -42 -23 -2 12 -7
22 -12 22 -5 0 -10 -10 -12 -22 -6 -41 -27 -30 -42 23 -19 62 -18 59 -7 59 5
0 14 -15 21 -32z m150 0 l12 -33 9 33 c5 17 14 32 19 32 5 0 14 -15 19 -32 l9
-33 12 33 c7 17 16 32 21 32 11 0 12 3 -7 -59 -15 -53 -36 -64 -42 -23 -2 12
-7 22 -12 22 -5 0 -10 -10 -12 -22 -6 -41 -27 -30 -42 23 -19 62 -18 59 -7 59
5 0 14 -15 21 -32z m150 0 l12 -33 9 33 c5 17 14 32 19 32 5 0 14 -15 19 -32
l9 -33 12 33 c7 17 16 32 21 32 11 0 12 3 -7 -59 -15 -53 -36 -64 -42 -23 -2
12 -7 22 -12 22 -5 0 -10 -10 -12 -22 -6 -41 -27 -30 -42 23 -19 62 -18 59 -7
59 5 0 14 -15 21 -32z m358 20 c7 -7 12 -20 12 -30 0 -14 -8 -18 -40 -18 -31
0 -38 -3 -34 -15 7 -18 35 -20 52 -3 17 17 28 2 12 -17 -28 -34 -90 -7 -90 40
0 45 58 73 88 43z m109 0 c15 -12 17 -56 4 -76 -5 -8 -20 -15 -35 -15 -17 -2
-26 -8 -26 -19 0 -10 -4 -18 -10 -18 -6 0 -10 29 -10 68 l0 69 32 1 c18 0 38
-4 45 -10z m124 -12 c14 -29 4 -75 -16 -83 -28 -10 -64 6 -71 33 -10 41 10 74
46 74 23 0 33 -6 41 -24z m100 8 c12 -15 10 -16 -19 -10 -40 9 -42 -6 -2 -21
19 -7 30 -18 30 -31 0 -33 -57 -45 -80 -17 -16 19 -5 34 12 17 15 -15 48 -16
48 -2 0 6 -13 13 -29 16 -17 4 -32 13 -36 21 -14 37 49 59 76 27z m49 -39 c0
-30 -4 -55 -10 -55 -5 0 -10 25 -10 55 0 30 5 55 10 55 6 0 10 -25 10 -55z
m167 43 c18 -14 16 -73 -2 -88 -8 -7 -24 -10 -35 -7 -15 4 -20 0 -20 -14 0
-10 -4 -19 -10 -19 -6 0 -10 29 -10 68 l0 69 32 1 c18 0 38 -4 45 -10z m224
-12 c14 -29 4 -75 -16 -83 -28 -10 -64 6 -71 33 -10 41 10 74 46 74 23 0 33
-6 41 -24z m167 12 c7 -7 12 -26 12 -43 0 -38 -16 -55 -50 -55 -46 0 -65 44
-40 91 12 22 59 26 78 7z m103 -4 c12 -15 10 -16 -19 -10 -40 9 -42 -6 -2 -21
19 -7 30 -18 30 -31 0 -33 -57 -45 -80 -17 -16 19 -5 34 12 17 14 -14 48 -16
48 -3 0 5 -13 12 -29 16 -16 3 -32 13 -35 22 -15 37 48 59 75 27z m149 1 c17
-20 5 -32 -15 -15 -32 26 -59 -12 -35 -50 8 -13 13 -13 31 -2 25 16 37 8 19
-13 -15 -18 -51 -20 -68 -3 -7 7 -12 26 -12 43 0 17 5 36 12 43 17 17 53 15
68 -3z m124 -17 c14 -41 -6 -78 -42 -78 -35 0 -52 16 -52 51 0 60 75 81 94 27z
m164 -25 c2 -32 -1 -53 -7 -53 -6 0 -11 20 -11 46 0 38 -3 45 -17 42 -13 -2
-19 -15 -21 -46 -4 -57 -22 -54 -22 4 0 38 -3 45 -17 42 -13 -2 -19 -15 -21
-46 -5 -61 -22 -51 -22 13 l0 55 68 -3 67 -2 3 -52z m-3628 37 c0 -5 -4 -10
-10 -10 -5 0 -10 5 -10 10 0 6 5 10 10 10 6 0 10 -4 10 -10z m0 -80 c0 -5 -4
-10 -10 -10 -5 0 -10 5 -10 10 0 6 5 10 10 10 6 0 10 -4 10 -10z m1930 0 c0
-5 -4 -10 -10 -10 -5 0 -10 5 -10 10 0 6 5 10 10 10 6 0 10 -4 10 -10z m1310
0 c0 -5 -4 -10 -10 -10 -5 0 -10 5 -10 10 0 6 5 10 10 10 6 0 10 -4 10 -10z"/>
<path d="M638 640 c-10 -15 -24 -20 -54 -20 -66 0 -74 -16 -74 -151 0 -76 4
-119 12 -127 8 -8 66 -12 194 -12 153 0 185 3 198 16 13 12 16 39 16 129 0
134 -6 145 -79 145 -35 0 -53 5 -66 20 -14 16 -31 20 -76 20 -48 0 -61 -4 -71
-20z m132 -65 c102 -53 60 -215 -55 -215 -69 0 -121 62 -112 132 11 82 92 122
167 83z m120 -10 c0 -8 -9 -15 -20 -15 -11 0 -20 7 -20 15 0 8 9 15 20 15 11
0 20 -7 20 -15z"/>
<path d="M671 556 c-26 -15 -50 -51 -51 -79 -1 -56 61 -105 118 -92 81 17 95
132 21 170 -34 18 -57 18 -88 1z m98 -32 c29 -37 27 -78 -5 -103 -15 -12 -38
-21 -51 -21 -32 0 -73 42 -73 76 0 68 88 100 129 48z"/>
<path d="M650 472 c0 -16 45 -62 61 -62 6 0 2 8 -10 18 -11 9 -27 26 -36 37
-8 12 -14 15 -15 7z"/>
<path d="M1082 518 c-24 -29 -18 -74 12 -93 38 -25 86 4 86 52 0 12 -7 29 -16
37 -19 19 -67 21 -82 4z"/>
<path d="M1318 518 c-8 -7 -18 -21 -21 -30 -11 -31 9 -28 43 7 30 31 31 35 14
35 -11 0 -27 -6 -36 -12z"/>
<path d="M2377 512 c-10 -10 -17 -28 -17 -40 0 -24 36 -62 60 -62 29 0 60 30
60 59 0 54 -68 82 -103 43z"/>
<path d="M1525 514 c-24 -25 -16 -75 16 -93 24 -13 29 -13 53 2 47 31 27 107
-29 107 -13 0 -31 -7 -40 -16z"/>
<path d="M1752 518 c-7 -7 -12 -26 -12 -43 0 -38 16 -55 51 -55 49 0 73 45 49
91 -12 22 -68 27 -88 7z"/>
<path d="M2824 504 c-16 -24 -16 -29 -3 -53 21 -37 72 -41 94 -7 14 21 15 29
3 53 -19 40 -70 44 -94 7z"/>
<path d="M3183 518 c-34 -44 -14 -98 37 -98 43 0 67 38 48 77 -15 31 -67 44
-85 21z"/>
<path d="M12966 515 c-16 -24 -16 -25 4 -25 15 0 20 7 20 25 0 14 -2 25 -4 25
-2 0 -11 -11 -20 -25z"/>
<path d="M13945 520 c-12 -20 4 -62 23 -58 23 4 24 61 0 66 -9 2 -19 -2 -23
-8z"/>
<path d="M11827 563 c-2 -5 -3 -28 -3 -53 1 -39 4 -45 24 -48 33 -5 52 15 52
54 0 23 -6 37 -19 44 -23 12 -48 13 -54 3z"/>
<path d="M12310 521 c-13 -26 -13 -31 5 -31 9 0 15 9 15 25 0 30 -6 32 -20 6z"/>
<path d="M12526 555 c-3 -9 1 -18 10 -22 19 -7 39 11 30 26 -10 16 -33 13 -40
-4z"/>
<path d="M12527 504 c-10 -10 -9 -42 2 -48 18 -11 42 6 39 28 -3 21 -28 33
-41 20z"/>
<path d="M12856 515 c-16 -24 -16 -25 4 -25 15 0 20 7 20 25 0 14 -2 25 -4 25
-2 0 -11 -11 -20 -25z"/>
<path d="M11383 483 c-17 -6 -17 -33 0 -33 14 0 37 20 37 32 0 9 -18 9 -37 1z"/>
<path d="M11492 514 c-15 -27 -3 -56 22 -52 16 2 21 10 21 33 0 34 -28 47 -43
19z"/>
<path d="M11607 524 c-14 -14 -6 -24 19 -24 16 0 24 5 22 13 -5 14 -31 21 -41
11z"/>
<path d="M14055 520 c-4 -6 7 -10 25 -10 18 0 29 4 25 10 -3 6 -15 10 -25 10
-10 0 -22 -4 -25 -10z"/>
<path d="M14175 519 c-10 -15 4 -61 17 -57 18 6 32 34 25 52 -7 18 -32 22 -42
5z"/>
<path d="M14285 511 c-8 -26 4 -51 25 -51 10 0 21 7 24 16 10 25 -3 54 -24 54
-10 0 -21 -8 -25 -19z"/>
<path d="M14614 516 c-10 -26 0 -51 21 -51 16 0 20 7 20 30 0 33 -30 49 -41
21z"/>
<path d="M14825 511 c-8 -26 4 -51 25 -51 10 0 21 7 24 16 10 25 -3 54 -24 54
-10 0 -21 -8 -25 -19z"/>
<path d="M14995 511 c-8 -26 4 -51 26 -51 20 0 36 40 24 59 -10 18 -43 12 -50
-8z"/>
<path d="M15365 511 c-8 -26 4 -51 26 -51 20 0 36 40 24 59 -10 18 -43 12 -50
-8z"/>
</g>
</svg>
