<?xml version="1.0" standalone="no"?>
<!DOCTYPE svg PUBLIC "-//W3C//DTD SVG 20010904//EN"
 "http://www.w3.org/TR/2001/REC-SVG-20010904/DTD/svg10.dtd">
<svg version="1.0" xmlns="http://www.w3.org/2000/svg"
 width="400.000000pt" height="400.000000pt" viewBox="0 0 400.000000 400.000000"
 preserveAspectRatio="xMidYMid meet">

<g transform="translate(0.000000,400.000000) scale(0.100000,-0.100000)"
fill="white" stroke="none">
<path d="M1910 3985 c-118 -39 -200 -149 -200 -270 0 -90 24 -149 87 -214 l53
-55 0 -107 0 -107 -67 -12 c-239 -45 -444 -156 -623 -339 -190 -195 -296 -413
-330 -684 -6 -48 -10 -358 -10 -759 l0 -678 324 0 324 0 4 143 c3 155 10 179
65 214 25 17 63 18 463 18 400 0 438 -1 463 -18 55 -35 62 -59 65 -214 l4
-143 324 0 325 0 -4 732 c-3 644 -6 742 -21 803 -60 251 -157 428 -325 596
-173 174 -383 286 -613 329 l-68 12 0 107 0 107 53 55 c89 91 113 218 63 325
-62 134 -220 204 -356 159z m-336 -1909 c233 -114 233 -458 0 -572 -160 -78
-351 -10 -431 155 -72 146 -7 337 140 413 61 31 94 38 169 34 48 -2 83 -11
122 -30z m1167 7 c63 -28 125 -86 157 -147 24 -45 27 -62 27 -146 0 -80 -4
-102 -23 -138 -35 -66 -88 -119 -150 -149 -77 -38 -190 -39 -269 -4 -59 26
-136 103 -159 158 -35 83 -34 206 2 275 39 75 130 148 209 169 50 13 157 4
206 -18z"/>
<path d="M402 2149 c-50 -25 -98 -80 -113 -129 -6 -22 -9 -140 -7 -311 l3
-276 28 -41 c15 -23 46 -54 69 -69 38 -26 51 -28 155 -31 l113 -4 0 425 c0
234 3 432 6 441 5 14 -8 16 -102 16 -91 0 -116 -4 -152 -21z"/>
<path d="M3344 2155 c3 -9 6 -208 6 -442 l0 -425 113 4 c104 3 117 5 155 31
23 15 54 46 69 69 l28 42 0 296 0 296 -28 42 c-15 23 -46 54 -69 69 -38 26
-50 28 -161 31 -109 3 -119 2 -113 -13z"/>
<path d="M560 552 c-37 -38 -43 -79 -38 -299 4 -191 7 -207 59 -237 25 -15
155 -16 1419 -16 1264 0 1394 1 1419 16 52 30 55 46 59 237 5 220 -1 261 -38
299 l-28 28 -1412 0 -1412 0 -28 -28z"/>
</g>
</svg>
